<svg viewBox="0 0 1000.1531 1000" xmlns="http://www.w3.org/2000/svg"><path d="M496.153 0c-176 0-331 90-421 226-18 27-33 55-46 85-12 29-21 60-28 92v3c0 7 5 12 11 12h101c5 0 10-4 11-9 29-113 109-206 214-253 20-10 41-17 63-23 31-7 62-11 95-11 25 0 50 2 74 7 5 1 10 2 14 3 6 1 10 3 14 4 5 1 11-1 13-6l51-87s1-1 1-2c2-6-1-13-7-15-22-7-43-13-65-17-5-1-9-1-13-2-27-5-54-7-82-7zm327 114c-5 0-9 2-11 6l-50 87c-3 4-2 10 2 14 29 29 54 63 73 101 4 7 7 14 11 22 19 46 30 97 30 151 0 77-22 149-62 209-7 11-15 23-24 33-9 11-18 21-28 31-4 4-5 10-2 14l50 87c0 1 1 2 2 3 4 5 11 5 16 1 58-52 104-117 134-190 6-15 11-29 15-44 14-46 21-94 21-144 0-108-34-209-92-291-11-16-23-31-37-46-13-14-26-28-41-41-1-1-1-1-2-1-2-1-4-2-5-2zm-811 468h-3c-6 1-10 8-9 14 34 166 149 302 302 366 30 12 61 21 93 28 32 6 66 10 100 10 40 0 79-5 117-14 7-1 14-3 22-5 6-2 13-5 20-7 1 0 2-1 3-1 6-3 8-10 4-16l-50-87c-3-5-8-7-13-6-14 4-28 7-42 9-3 1-6 1-8 2-18 2-35 3-53 3-128 0-242-63-311-160h-1c-13-19-25-40-35-61s-18-43-24-65c-1-6-6-10-11-10h-101z"/></svg>